<svg width="218" height="62" viewBox="0 0 218 62" fill="none" xmlns="http://www.w3.org/2000/svg">
<g clip-path="url(#clip0)">
<path d="M218 55.7382C218 59.1521 215.248 61.9913 211.688 61.9913H6.31217C2.86522 62 0 59.2653 0 55.7382V6.25313C0 2.84787 2.86522 0 6.31217 0H211.697C215.135 0 218.009 2.84787 218.009 6.25313V55.7382H218Z" fill="black"/>
<path d="M47.8492 30.7169C47.8492 25.4828 52.2078 22.9833 52.3207 22.8701C49.7941 19.3429 46.0085 18.7768 44.6367 18.7768C41.4242 18.4371 38.3245 20.7102 36.6054 20.7102C34.8862 20.7102 32.3596 18.7768 29.7202 18.89C26.1603 18.89 22.9478 20.9366 21.1158 24.1242C17.4431 30.4905 20.1955 39.8267 23.7553 44.9389C25.4744 47.4384 27.6537 50.2863 30.2932 50.1731C32.9327 50.0598 33.9659 48.4661 37.1784 48.4661C40.3909 48.4661 41.3113 50.1731 44.0636 50.0598C46.9289 50.0598 48.7695 47.5603 50.3758 44.9389C52.4422 42.091 53.241 39.2519 53.241 39.0254C53.3539 39.0167 47.9621 36.9701 47.8492 30.7169Z" fill="white"/>
<path d="M42.6831 15.2411C44.0636 13.4209 45.0969 11.0346 44.8624 8.63965C42.796 8.75287 40.1565 10.007 38.6631 11.8272C37.4042 13.3077 36.1365 15.8072 36.4838 18.1935C38.7847 18.3154 41.1897 17.0613 42.6831 15.2411Z" fill="white"/>
<path d="M86.3995 49.7117H82.6139L80.5475 43.3453H73.4365L71.4829 49.7117H67.8102L74.8083 28.0957H79.1669L86.3995 49.7117ZM79.9744 40.7239L78.1424 35.0368C77.9167 34.4708 77.5694 33.1034 76.9963 30.9436H76.8834C76.6577 31.8493 76.3104 33.2166 75.8502 35.0368L74.0182 40.7239H79.9744Z" fill="white"/>
<path d="M104.416 41.751C104.416 44.3637 103.73 46.5323 102.236 48.0041C100.977 49.3714 99.3711 50.0507 97.4176 50.0507C95.3511 50.0507 93.8578 49.3714 92.9461 47.8909V56.0774H89.5078V39.2427C89.5078 37.5358 89.5078 35.8288 89.395 34.1218H92.4946L92.7204 36.6213H92.8332C93.9793 34.8011 95.82 33.7734 98.1122 33.7734C99.9442 33.7734 101.55 34.4527 102.705 35.9333C103.721 37.4225 104.416 39.356 104.416 41.751ZM100.856 41.8642C100.856 40.3836 100.509 39.1382 99.8226 38.1106C99.0152 37.0829 98.1035 36.5168 96.8359 36.5168C95.9155 36.5168 95.2296 36.8565 94.5437 37.3093C93.8578 37.8754 93.3976 38.6767 93.1632 39.5824C92.9374 40.0353 92.9374 40.3749 92.9374 40.7233V43.2228C92.9374 44.3637 93.2847 45.2694 93.9706 46.0707C94.6566 46.8632 95.5769 47.2116 96.723 47.2116C97.9819 47.2116 99.0152 46.7587 99.8226 45.731C100.509 44.8166 100.856 43.4579 100.856 41.8642Z" fill="white"/>
<path d="M122.423 41.751C122.423 44.3637 121.737 46.5323 120.244 48.0041C118.985 49.3714 117.379 50.0507 115.425 50.0507C113.359 50.0507 111.865 49.3714 110.954 47.8909H110.841V56.0774H107.402V39.2427C107.402 37.5358 107.402 35.8288 107.29 34.1218H110.389L110.615 36.6213H110.728C111.874 34.8011 113.715 33.7734 116.007 33.7734C117.839 33.7734 119.445 34.4527 120.6 35.9333C121.85 37.4225 122.423 39.356 122.423 41.751ZM118.872 41.8642C118.872 40.3836 118.525 39.1382 117.839 38.1106C117.031 37.0829 116.12 36.5168 114.852 36.5168C113.932 36.5168 113.246 36.8565 112.56 37.3093C111.874 37.8754 111.414 38.6767 111.179 39.5824C111.066 40.0353 111.066 40.3749 111.066 40.6101V43.2228C111.066 44.3637 111.414 45.2694 112.1 46.0707C112.786 46.8632 113.706 47.2116 114.852 47.2116C116.111 47.2116 117.144 46.7587 117.952 45.731C118.525 44.8166 118.872 43.4579 118.872 41.8642Z" fill="white"/>
<path d="M142.619 43.6849C142.619 45.5051 141.933 46.9857 140.665 48.1179C139.285 49.372 137.227 50.0513 134.7 50.0513C132.408 50.0513 130.454 49.5984 129.074 48.6839L129.881 45.8361C131.375 46.7418 133.094 47.2034 134.926 47.2034C136.185 47.2034 137.218 46.8637 138.026 46.2977C138.711 45.7316 139.172 44.9303 139.172 43.9114C139.172 43.0056 138.824 42.3176 138.251 41.7515C137.678 41.1854 136.645 40.6106 135.265 40.0445C131.479 38.6772 129.525 36.5173 129.525 33.9046C129.525 32.0844 130.211 30.7171 131.479 29.5849C132.859 28.444 134.579 27.8779 136.758 27.8779C138.711 27.8779 140.431 28.2176 141.69 28.9056L140.769 31.7535C139.51 31.0742 138.13 30.7258 136.636 30.7258C135.377 30.7258 134.457 31.0655 133.771 31.6315C133.198 32.1976 132.851 32.7724 132.851 33.565C132.851 34.4707 133.198 35.1587 133.884 35.7248C134.457 36.2909 135.49 36.7525 137.097 37.4318C138.929 38.2243 140.309 39.0256 141.229 40.0445C142.271 40.8371 142.619 42.0912 142.619 43.6849Z" fill="white"/>
<path d="M154.21 36.7432H150.311V44.2504C150.311 46.1838 150.997 47.0983 152.378 47.0983C152.951 47.0983 153.524 47.0983 153.984 46.985L154.097 49.5978C153.411 49.8242 152.491 49.9374 151.345 49.9374C149.964 49.9374 148.931 49.4846 148.132 48.6833C147.325 47.8908 146.986 46.4102 146.986 44.4768V36.6299H144.694V34.1304H146.986V31.2826L150.424 30.2549V34.1217H154.323V36.7344H154.21V36.7432Z" fill="white"/>
<path d="M171.531 41.7512C171.531 44.1375 170.845 46.0709 169.465 47.6647C167.971 49.2584 166.139 50.0509 163.726 50.0509C161.434 50.0509 159.593 49.2584 158.221 47.7779C156.841 46.2973 156.155 44.3639 156.155 42.0908C156.155 39.7046 156.841 37.6579 158.221 36.1774C159.602 34.5836 161.546 33.9043 163.96 33.9043C166.252 33.9043 168.093 34.6968 169.465 36.1774C170.845 37.536 171.531 39.4694 171.531 41.7512ZM167.98 41.8644C167.98 40.3839 167.633 39.2517 167.06 38.224C166.374 36.9699 165.341 36.4038 163.96 36.4038C162.58 36.4038 161.434 36.9699 160.748 38.224C160.175 39.2517 159.827 40.4971 159.827 41.9776C159.827 43.4582 160.175 44.5903 160.748 45.618C161.555 46.8721 162.58 47.4382 163.96 47.4382C165.341 47.4382 166.374 46.7589 167.06 45.5048C167.633 44.5903 167.98 43.3362 167.98 41.8644Z" fill="white"/>
<path d="M182.897 37.1963C182.549 37.0831 182.211 37.0831 181.751 37.0831C180.492 37.0831 179.571 37.5359 178.885 38.4504C178.312 39.2429 177.965 40.2706 177.965 41.5247V49.7112H174.518V39.0165C174.518 37.1963 174.518 35.6025 174.405 34.122H177.392L177.505 37.0831H177.618C177.965 36.0554 178.538 35.2629 179.337 34.5835C180.144 34.0175 180.943 33.791 181.863 33.791C182.211 33.791 182.437 33.791 182.784 33.9042V37.205H182.897V37.1963Z" fill="white"/>
<path d="M198.499 41.1763C198.499 41.7424 198.499 42.3172 198.386 42.7701H187.941C187.941 44.3638 188.514 45.496 189.435 46.2973C190.355 46.9766 191.501 47.4382 192.873 47.4382C194.479 47.4382 195.86 47.2117 197.119 46.7588L197.692 49.1451C196.198 49.8244 194.479 50.0509 192.413 50.0509C189.999 50.0509 188.054 49.3716 186.674 47.891C185.293 46.5237 184.607 44.5903 184.607 42.204C184.607 39.8177 185.293 37.8843 186.561 36.2905C187.941 34.5835 189.773 33.791 192.065 33.791C194.358 33.791 196.085 34.5835 197.231 36.2905C198.039 37.5359 198.499 39.2429 198.499 41.1763ZM195.174 40.2706C195.174 39.2429 194.948 38.3372 194.488 37.6579C193.915 36.7521 192.994 36.1773 191.735 36.1773C190.589 36.1773 189.669 36.6302 188.983 37.5446C188.41 38.3372 188.063 39.1384 187.95 40.2706H195.174Z" fill="white"/>
<path d="M69.6423 10.355C69.9896 10.1286 70.4497 9.90215 70.9012 9.78894C71.3614 9.67572 71.9344 9.5625 72.5075 9.5625C73.5407 9.5625 74.3395 9.78894 74.9212 10.2418C75.4943 10.6947 75.8416 11.3827 75.8416 12.1752C75.8416 12.8545 75.6158 13.4293 75.2685 13.769C74.9212 14.2219 74.3482 14.4483 73.7751 14.6747C74.1224 14.6747 74.461 14.788 74.6955 14.9012C75.0428 15.0144 75.2685 15.2408 75.5029 15.4673C75.7287 15.6937 75.9631 15.9201 76.076 16.2598C76.1889 16.5994 76.3017 16.8259 76.3017 17.2875C76.3017 17.8536 76.1889 18.3151 75.9544 18.768C75.7287 19.2209 75.3814 19.4473 75.0341 19.7957C74.6868 20.0221 74.2266 20.2486 73.7751 20.3618C73.2021 20.475 72.7419 20.475 72.2817 20.475C71.8216 20.475 71.2485 20.475 70.7884 20.3618C70.3282 20.2486 69.868 20.1353 69.4078 19.7957L69.868 18.5416C70.0938 18.6548 70.4411 18.768 70.9012 18.8812C71.3614 18.9944 71.8216 19.1077 72.1602 19.1077C72.8461 19.1077 73.4191 18.9944 73.8793 18.6548C74.2266 18.3151 74.4524 17.8623 74.4524 17.2875C74.4524 16.9478 74.3395 16.6082 74.2266 16.3817C74.1137 16.1553 73.8793 15.9288 73.6536 15.8156C73.4278 15.7024 73.0805 15.5892 72.8461 15.5892C72.4988 15.5892 72.2731 15.476 71.9258 15.476H71.1183V14.2219H71.8042C72.1515 14.2219 72.4901 14.2219 72.7246 14.1086C72.9503 13.9954 73.2976 13.8822 73.4105 13.769C73.6362 13.6558 73.7578 13.4293 73.8706 13.2029C73.9835 12.9765 74.0964 12.75 74.0964 12.5236C74.0964 12.0707 73.9835 11.7311 73.6362 11.3827C73.2889 11.1563 72.8287 10.9298 72.2557 10.9298C71.9084 10.9298 71.4482 11.043 71.1096 11.1563C70.7623 11.2695 70.4237 11.3827 70.0764 11.6091L69.6423 10.355Z" fill="white"/>
<path d="M83.2998 20.3615L83.187 19.4557C82.6139 20.135 81.928 20.4834 80.8948 20.4834C80.5475 20.4834 80.2089 20.3702 79.9744 20.2569C79.7487 20.1437 79.4014 20.0305 79.2885 19.8041C79.0628 19.5776 78.9412 19.3512 78.8283 19.1248C78.7155 18.8983 78.6026 18.5587 78.6026 18.219C78.6026 17.3133 78.9499 16.512 79.7487 16.0592C80.5562 15.6063 81.7023 15.3799 83.0741 15.3799V15.2405C83.0741 14.2128 82.501 13.76 81.4678 13.76C80.6604 13.76 80.0873 13.9864 79.4014 14.3261L79.0541 13.1852C79.74 12.7323 80.6603 12.5059 81.6936 12.5059C83.76 12.5059 84.6803 13.5335 84.6803 15.6934V18.5413C84.6803 19.3338 84.6803 19.9086 84.7932 20.3615H83.2998ZM83.0741 16.4946C82.1537 16.4946 81.3549 16.6078 80.8948 16.8343C80.4346 17.0607 80.2089 17.5136 80.2089 17.9752C80.2089 18.428 80.3217 18.6545 80.5562 18.8809C80.7819 19.1073 81.0163 19.2206 81.3636 19.2206C81.5894 19.2206 81.8238 19.2206 81.9367 19.1073C82.1624 18.9941 82.284 18.8809 82.5097 18.7677L82.857 18.3148C82.9699 18.0884 82.9699 17.8619 82.9699 17.7487V16.4946H83.0741Z" fill="white"/>
<path d="M92.9374 12.7412V14.1085H89.7249V20.3617H88.0057V12.7412H92.9374Z" fill="white"/>
<path d="M102.809 16.3813C102.809 16.9474 102.696 17.5222 102.584 18.0883C102.471 18.5412 102.123 18.9941 101.898 19.3424C101.55 19.6821 101.212 20.0217 100.864 20.135C100.291 20.4746 99.8313 20.4746 99.3711 20.4746C98.3379 20.4746 97.652 20.135 97.1918 19.3337V23.3138H95.4727V15.014C95.4727 14.5611 95.4727 14.2215 95.4727 13.7599C95.4727 13.307 95.4727 12.9674 95.4727 12.5058H96.966L97.0789 13.7599C97.652 12.8542 98.5723 12.3926 99.7184 12.3926C100.179 12.3926 100.639 12.5058 100.977 12.619C101.325 12.8455 101.663 13.0719 102.011 13.4115C102.358 13.7512 102.471 14.2041 102.696 14.6657C102.688 15.3537 102.809 15.8152 102.809 16.3813ZM101.082 16.4946C101.082 16.1549 101.082 15.8152 100.969 15.4669C100.856 15.1272 100.743 14.9008 100.621 14.6744C100.396 14.4479 100.274 14.2215 99.9355 14.1083C99.7097 13.9951 99.3624 13.8818 99.128 13.8818C98.9022 13.8818 98.6678 13.8818 98.4421 13.9951C98.2163 14.1083 97.9819 14.2215 97.869 14.4479C97.6433 14.6744 97.5217 14.7876 97.4089 15.1272C97.296 15.3537 97.296 15.6933 97.296 15.9198V17.1739C97.296 17.4003 97.296 17.74 97.4089 17.9664C97.5217 18.1928 97.6346 18.4193 97.7561 18.6457C97.869 18.8721 98.1035 18.9854 98.3292 19.0986C98.5549 19.2118 98.7894 19.2118 99.1367 19.2118C99.8226 19.2118 100.283 18.9854 100.63 18.5325C100.856 17.9751 101.082 17.2871 101.082 16.4946Z" fill="white"/>
<path d="M111.987 12.7411L110.033 18.0885C109.573 19.3426 109.113 20.3616 108.653 21.1628C108.193 21.9554 107.845 22.5302 107.394 22.8698C106.821 23.4359 106.135 23.6623 105.562 23.7756L105.102 22.295C105.562 22.1818 106.022 21.9554 106.361 21.6157C106.821 21.2761 107.046 20.8232 107.281 20.3616L107.394 20.0219L107.281 19.6823L104.529 12.6279H106.361L107.854 16.9476C107.967 17.1741 107.967 17.4005 108.08 17.6269C108.193 17.8534 108.193 18.193 108.305 18.4195C108.305 18.3063 108.418 18.0798 108.531 17.7402C108.644 17.5137 108.644 17.1741 108.757 16.8344L110.016 12.6279H111.969V12.7411H111.987Z" fill="white"/>
<path d="M114.965 15.9286H115.772C116.345 15.9286 116.806 15.8154 117.153 15.589C117.5 15.3625 117.613 15.1361 117.613 14.7964C117.613 14.4568 117.5 14.2304 117.153 14.0039C116.927 13.7775 116.467 13.6643 116.007 13.6643C115.659 13.6643 115.434 13.6643 115.086 13.7775C114.739 13.8907 114.513 14.0039 114.166 14.1171L113.706 12.9762C114.166 12.7498 114.626 12.5234 115.086 12.5234C115.547 12.4102 116.007 12.4102 116.467 12.4102C116.814 12.4102 117.153 12.4102 117.5 12.5234C117.847 12.6366 118.186 12.7498 118.42 12.863C118.646 12.9762 118.881 13.2027 119.106 13.5423C119.332 13.7688 119.332 14.1084 119.332 14.57C119.332 14.7964 119.332 15.0229 119.219 15.2493L118.872 15.7022L118.299 16.0418L117.726 16.2683C117.952 16.2683 118.186 16.3815 118.412 16.4947C118.638 16.6079 118.872 16.7212 119.098 16.8344C119.323 16.9476 119.445 17.174 119.558 17.4005C119.671 17.6269 119.784 17.8533 119.784 18.0798C119.784 18.5326 119.671 18.8723 119.436 19.2207C119.211 19.5603 118.976 19.7868 118.629 19.9C118.282 20.1264 117.943 20.2396 117.483 20.2396C117.023 20.3528 116.675 20.3528 116.224 20.3528C115.764 20.3528 115.303 20.3528 114.843 20.2396C114.383 20.1264 113.923 20.0132 113.584 19.7868L114.045 18.6459C114.27 18.7591 114.618 18.8723 114.965 18.9855C115.312 19.0987 115.651 19.0987 115.998 19.0987C116.571 19.0987 117.031 18.9855 117.379 18.7591C117.726 18.5326 117.839 18.3062 117.839 17.9666C117.839 17.7401 117.839 17.5137 117.726 17.4005L117.266 17.0608C117.04 16.9476 116.806 16.9476 116.58 16.8344C116.354 16.8344 116.007 16.8344 115.772 16.8344H114.965V15.9286Z" fill="white"/>
<path d="M124.151 12.7412V15.4672C124.151 16.0332 124.151 16.608 124.151 17.1741C124.151 17.627 124.151 18.2018 124.038 18.7679C124.264 18.315 124.385 17.9754 124.611 17.627C124.837 17.2874 124.958 16.8345 125.184 16.4861L127.138 12.8457H129.317V20.4662H127.711V17.7402C127.711 17.1741 127.711 16.5993 127.711 16.0332C127.711 15.4672 127.711 14.8924 127.824 14.3263H127.711C127.485 14.7791 127.363 15.232 127.138 15.5804C126.912 15.92 126.79 16.2597 126.565 16.608C126.217 17.2874 125.879 17.8622 125.531 18.5415C125.184 19.2208 124.846 19.7956 124.498 20.4749H122.319V12.8544H124.151V12.7412Z" fill="white"/>
<path d="M138.373 12.7412V14.1085H136.081V20.3617H134.362V14.1085H132.069V12.7412H138.373Z" fill="white"/>
<path d="M147.212 16.155V16.6079V16.9476H142.046C142.046 17.6269 142.271 18.2017 142.731 18.6546C143.192 18.9942 143.765 19.2206 144.451 19.2206C145.258 19.2206 145.944 19.1074 146.517 18.881L146.743 20.0219C146.057 20.3615 145.137 20.4748 144.103 20.4748C143.53 20.4748 142.957 20.3615 142.497 20.2483C142.037 20.0219 141.577 19.7954 141.238 19.4558C140.891 19.1161 140.665 18.6633 140.431 18.2017C140.205 17.7488 140.205 17.174 140.205 16.6079C140.205 16.0418 140.318 15.467 140.431 15.0142C140.656 14.5613 140.891 14.1084 141.117 13.76C141.464 13.4204 141.802 13.0807 142.263 12.8543C142.723 12.6279 143.183 12.5146 143.756 12.5146C144.216 12.5146 144.676 12.6279 145.137 12.7411C145.484 12.9675 145.822 13.194 146.17 13.5336C146.396 13.8733 146.63 14.2129 146.856 14.6745C147.099 15.1274 147.212 15.5802 147.212 16.155ZM145.493 15.6935C145.493 15.1274 145.38 14.5526 145.032 14.2129C144.685 13.8733 144.346 13.6468 143.773 13.6468C143.313 13.6468 142.853 13.8733 142.514 14.2129C142.167 14.5526 141.941 15.1187 141.941 15.6935H145.493Z" fill="white"/>
<path d="M154.097 12.7411C154.444 12.7411 154.783 12.6279 155.243 12.6279C155.703 12.6279 156.163 12.6279 156.736 12.6279C157.084 12.6279 157.422 12.6279 157.77 12.6279C158.117 12.6279 158.577 12.7411 158.916 12.8544C159.263 12.9676 159.602 13.194 159.836 13.4205C160.062 13.6469 160.183 13.9865 160.183 14.4481C160.183 14.6746 160.183 14.901 160.07 15.0142L159.723 15.4671L159.263 15.8067C159.037 15.92 158.916 15.92 158.69 16.0332C159.263 16.1464 159.723 16.3728 160.07 16.5993C160.418 16.9389 160.643 17.2786 160.643 17.8534C160.643 18.4195 160.531 18.7591 160.183 19.1075C159.836 19.4471 159.497 19.6736 159.037 19.7868C158.577 19.9 158.117 20.0132 157.657 20.1265C157.197 20.1265 156.736 20.2397 156.398 20.2397C155.938 20.2397 155.59 20.2397 155.139 20.2397C154.687 20.2397 154.331 20.2397 154.106 20.1265V12.7411H154.097ZM155.703 15.8155H156.623C156.849 15.8155 157.197 15.8155 157.431 15.7022C157.657 15.7022 157.891 15.589 158.004 15.4758L158.464 15.1361L158.577 14.6833C158.577 14.3436 158.464 14.1172 158.117 13.8907C157.77 13.7775 157.309 13.6643 156.736 13.6643H156.276C156.163 13.6643 155.929 13.6643 155.703 13.6643V15.8155ZM155.703 19.2207C155.929 19.2207 156.05 19.2207 156.276 19.2207H156.736C156.962 19.2207 157.197 19.2207 157.422 19.2207C157.648 19.2207 157.882 19.1075 158.108 18.9943C158.334 18.8811 158.455 18.7678 158.568 18.6546C158.681 18.5414 158.794 18.315 158.794 18.0885C158.794 17.6357 158.568 17.296 158.221 17.1828C157.874 17.0696 157.301 16.9563 156.615 16.9563H155.694V19.2207H155.703Z" fill="white"/>
</g>
<defs>
<clipPath id="clip0">
<rect width="218" height="62" fill="white"/>
</clipPath>
</defs>
</svg>
