<svg width="49" height="29" viewBox="0 0 49 29" fill="none" xmlns="http://www.w3.org/2000/svg">
<path d="M35.5563 1.41417L21.4141 15.5563L19.9999 14.1421L34.142 -4.55379e-05L35.5563 1.41417Z" fill="#FFD7B7"/>
<path d="M35.5563 26.87L34.142 28.2842L19.9999 14.1421L21.4141 12.7279L35.5563 26.87Z" fill="#FFD7B7"/>
<path d="M25.5563 1.41417L11.4141 15.5563L9.99991 14.1421L24.142 -4.55379e-05L25.5563 1.41417Z" fill="#FFA158"/>
<path d="M25.5563 26.87L24.142 28.2842L9.99991 14.1421L11.4141 12.7279L25.5563 26.87Z" fill="#FFA158"/>
<path d="M15.5563 1.41417L1.41412 15.5563L-9.10759e-05 14.1421L14.142 -4.55379e-05L15.5563 1.41417Z" fill="#FF7200"/>
<path d="M15.5563 26.87L14.142 28.2842L-9.10759e-05 14.1421L1.41412 12.7279L15.5563 26.87Z" fill="#FF7200"/>
</svg>
