<svg width="49" height="29" viewBox="0 0 49 29" fill="none" xmlns="http://www.w3.org/2000/svg">
<path d="M32.7279 26.87L46.8701 12.7279L48.2843 14.1421L34.1421 28.2842L32.7279 26.87Z" fill="#FF7200"/>
<path d="M32.7279 1.41417L34.1421 -4.55379e-05L48.2843 14.1421L46.8701 15.5563L32.7279 1.41417Z" fill="#FF7200"/>
<path d="M22.7279 26.87L36.8701 12.7279L38.2843 14.1421L24.1421 28.2842L22.7279 26.87Z" fill="#FFA158"/>
<path d="M22.7279 1.41417L24.1421 -4.55379e-05L38.2843 14.1421L36.8701 15.5563L22.7279 1.41417Z" fill="#FFA158"/>
<path d="M12.7279 26.87L26.8701 12.7279L28.2843 14.1421L14.1421 28.2842L12.7279 26.87Z" fill="#FFD1AD"/>
<path d="M12.7279 1.41417L14.1421 -4.55379e-05L28.2843 14.1421L26.8701 15.5563L12.7279 1.41417Z" fill="#FFD1AD"/>
</svg>
