<svg width="50" height="50" viewBox="0 0 50 50" fill="none" xmlns="http://www.w3.org/2000/svg">
<g clip-path="url(#clip0)">
<path d="M25.0112 0C25.0087 0 25.0037 0 25.0013 0C11.1933 0 3.76311e-06 11.1932 3.76311e-06 25.0012C-0.00748837 38.8018 11.1733 49.9925 24.9738 50C24.9788 50 24.9838 50 24.9888 50H25.0137C38.8068 50.0075 49.9925 38.8317 50 25.0387C50 25.0312 50 25.0212 50 25.0137C50.0075 11.2057 38.8192 0.00749213 25.0112 0ZM32.0988 16.5476H29.5265C27.5086 16.5476 27.1165 17.5066 27.1165 18.9126V22.0169H31.929L31.3021 26.8768H27.1165V39.3487H22.0968V26.8768H17.9012V22.0169H22.1093V18.4331C22.1093 14.2725 24.6416 12.0074 28.3527 12.0074C29.6039 12.0024 30.8551 12.0673 32.0988 12.1997V16.5476Z" fill="white"/>
</g>
<defs>
<clipPath id="clip0">
<rect width="50" height="50" fill="white"/>
</clipPath>
</defs>
</svg>
