<svg width="217" height="62" viewBox="0 0 217 62" fill="none" xmlns="http://www.w3.org/2000/svg">
<g clip-path="url(#clip0)">
<path d="M216.54 55.8C216.53 57.45 215.87 59.03 214.7 60.19C213.53 61.35 211.95 62 210.3 62H6.24C4.59 61.99 3.01 61.34 1.85 60.18C0.68 59.02 0.02 57.45 0 55.8V6.23C0.01 4.58 0.67 3 1.84 1.84C3.01 0.67 4.59 0.01 6.24 0H210.3C211.96 0 213.54 0.66 214.72 1.83C215.89 3 216.55 4.58 216.55 6.24L216.54 55.8Z" fill="black"/>
<path d="M109.3 33.8403C107.93 33.8503 106.59 34.2603 105.46 35.0203C102.29 37.1403 101.45 41.4303 103.57 44.6003C103.83 44.9802 104.12 45.3403 104.44 45.6603C106.43 47.6303 109.4 48.2203 111.99 47.1503C113.25 46.6303 114.33 45.7402 115.1 44.6003C115.86 43.4603 116.27 42.1303 116.27 40.7603C116.31 38.9102 115.58 37.1203 114.27 35.8203C112.95 34.5103 111.16 33.7903 109.3 33.8403ZM109.3 44.9303C107.59 45.0403 105.99 44.0903 105.25 42.5403C104.52 40.9903 104.81 39.1503 105.98 37.9003C107.57 36.2203 110.22 36.1303 111.9 37.7203C112.74 38.5103 113.21 39.6003 113.22 40.7503C113.3 42.4003 112.36 43.9203 110.85 44.5903C110.37 44.8103 109.84 44.9303 109.3 44.9303ZM94.16 33.8403C92.79 33.8403 91.45 34.2502 90.31 35.0103C87.13 37.1202 86.27 41.4103 88.38 44.5803C88.64 44.9703 88.93 45.3203 89.26 45.6503C91.24 47.6303 94.22 48.2203 96.81 47.1503C98.08 46.6303 99.16 45.7402 99.92 44.6003C100.68 43.4603 101.09 42.1303 101.09 40.7603C101.12 38.9202 100.4 37.1403 99.09 35.8403C97.79 34.5303 96.01 33.8103 94.16 33.8403ZM94.16 44.9303C93.05 44.9303 91.99 44.4903 91.2 43.7103C89.57 42.0803 89.57 39.4403 91.19 37.8103C91.19 37.8103 91.19 37.8103 91.2 37.8003C92.84 36.1703 95.48 36.1703 97.12 37.8003C98.75 39.4303 98.75 42.0703 97.13 43.7003C97.13 43.7003 97.13 43.7003 97.12 43.7103C96.34 44.4903 95.27 44.9303 94.16 44.9303ZM76.15 35.8903V38.8303H83.18C83.12 40.2003 82.62 41.5203 81.74 42.5803C80.31 44.0203 78.34 44.8003 76.31 44.7303C74.24 44.7303 72.25 43.9103 70.78 42.4503C67.73 39.4103 67.73 34.4803 70.77 31.4303L70.78 31.4203C72.25 29.9603 74.23 29.1403 76.31 29.1403C78.28 29.1203 80.18 29.8703 81.61 31.2303L83.67 29.1703C81.69 27.1603 78.97 26.0503 76.15 26.1003C73.3 26.1003 70.56 27.2303 68.54 29.2403C66.52 31.2503 65.39 33.9803 65.39 36.8303C65.39 39.6803 66.52 42.4102 68.54 44.4202C70.56 46.4403 73.29 47.5703 76.15 47.5703C78.81 47.7103 81.41 46.7303 83.32 44.8703C85.22 43.0103 86.27 40.4403 86.19 37.7803C86.19 37.1703 86.14 36.5603 86.03 35.9503L76.15 35.8903ZM149.85 38.1803C149.41 36.9403 148.6 35.8603 147.53 35.0803C146.46 34.3103 145.18 33.8703 143.86 33.8403C142.06 33.8403 140.33 34.5803 139.09 35.8903C137.85 37.2003 137.21 38.9602 137.32 40.7603C137.27 42.6003 137.98 44.3703 139.28 45.6803C140.58 46.9903 142.35 47.7103 144.19 47.6803C146.5 47.6803 148.66 46.5303 149.95 44.6103L147.6 43.0403C146.9 44.1803 145.67 44.9003 144.33 44.9303C142.92 44.9503 141.64 44.1303 141.06 42.8403L150.15 39.1503L149.85 38.1803ZM140.4 40.5003C140.3 38.9403 141.16 37.4903 142.57 36.8203C143.03 36.6003 143.52 36.4803 144.03 36.4503C145.1 36.3903 146.1 36.9703 146.58 37.9202L140.4 40.5003ZM132.88 47.1903H135.92V26.9503H132.88V47.1903ZM127.9 35.3403C126.95 34.3403 125.62 33.7903 124.24 33.8403C122.4 33.8403 120.64 34.5703 119.34 35.8703C116.64 38.5703 116.63 42.9403 119.33 45.6403L119.34 45.6503C120.64 46.9503 122.4 47.6803 124.24 47.6803C125.64 47.7203 126.98 47.1303 127.9 46.0803V47.0903C128.14 48.6903 127.26 50.2502 125.76 50.8703C125.28 51.0703 124.76 51.1603 124.23 51.1403C122.68 51.0903 121.31 50.1303 120.73 48.6903L118.08 49.7703C118.57 50.9903 119.43 52.0303 120.52 52.7603C121.62 53.4902 122.91 53.8703 124.23 53.8503C126.11 53.9403 127.92 53.1803 129.19 51.8003C130.45 50.4103 131.03 48.5303 130.77 46.6803V34.2803H127.89L127.9 35.3403ZM124.41 44.8703C123.34 44.8403 122.33 44.3903 121.6 43.6103C120.87 42.8303 120.49 41.7903 120.55 40.7303C120.45 39.0903 121.38 37.5603 122.87 36.8803C123.35 36.6603 123.88 36.5403 124.41 36.5203C125.47 36.5703 126.46 37.0503 127.16 37.8403C127.86 38.6303 128.2 39.6803 128.11 40.7303C128.19 41.7703 127.84 42.8103 127.15 43.5903C126.44 44.3603 125.46 44.8302 124.41 44.8703ZM164.07 26.9503H156.94V47.2503H159.95V39.5503H164.2C165.87 39.5503 167.48 38.8903 168.66 37.7003C171.12 35.2503 171.12 31.2603 168.67 28.8003L168.66 28.7903C167.48 27.6103 165.87 26.9403 164.2 26.9503H164.07ZM164.2 36.7403H159.82V29.7603H164.14C165.07 29.7603 165.96 30.1303 166.61 30.7803C167.97 32.1403 167.98 34.3503 166.62 35.7103C165.96 36.3703 165.07 36.7403 164.14 36.7403H164.2ZM182.9 33.8103C180.6 33.7003 178.46 34.9903 177.47 37.0703L180.18 38.1803C180.7 37.0703 181.87 36.4203 183.09 36.5503C183.87 36.4503 184.66 36.6703 185.28 37.1603C185.9 37.6503 186.29 38.3703 186.36 39.1603V39.3903C185.36 38.8503 184.23 38.5803 183.09 38.6103C180.21 38.6103 177.24 40.2103 177.24 43.1803C177.33 45.1203 178.6 46.8102 180.45 47.4202C181.05 47.6203 181.68 47.7003 182.31 47.6503C183.81 47.6903 185.22 46.9503 186.04 45.6903V47.2603H188.98V39.4303C189.01 36.9903 187.45 34.8203 185.13 34.0603C184.38 33.8103 183.59 33.7303 182.8 33.8103H182.9ZM182.44 44.9303C181.43 44.9303 180.05 44.4403 180.05 43.2003C180.05 41.9603 181.78 41.0503 183.32 41.0503C184.29 41.0303 185.25 41.2603 186.1 41.7403C185.88 43.5703 184.35 44.9703 182.5 45.0003L182.44 44.9303ZM199.71 34.3303L196.18 43.0703L192.55 34.2603H189.28L194.71 46.5603L191.6 53.3803H194.87L203.21 34.2603L199.71 34.3303ZM172.37 47.3803H175.41V26.9503H172.37V47.3803Z" fill="white"/>
<path d="M15.47 10.8002C14.94 11.4302 14.68 12.2302 14.72 13.0502V48.9402C14.67 49.7702 14.94 50.5902 15.47 51.2202L35.58 31.1502V30.7602L15.6 10.6602L15.47 10.8002Z" fill="#70C8F2"/>
<path d="M35.7 30.7702V31.2602L42.5 37.9502L50.45 33.4502C51.47 33.1302 52.16 32.1902 52.16 31.1202C52.16 30.0502 51.47 29.1102 50.45 28.7902L42.5 24.1602L35.7 30.7702Z" fill="url(#paint0_linear)"/>
<path d="M15.47 51.23C16.43 51.98 17.78 51.98 18.74 51.23L42.5 37.85L35.64 31L15.47 51.23Z" fill="url(#paint1_linear)"/>
<path d="M15.47 10.7997L35.7 30.9997L42.5 24.1497L18.83 10.6997C18.28 10.3497 17.65 10.1597 17 10.1497C16.42 10.1397 15.86 10.3697 15.47 10.7997Z" fill="url(#paint2_linear)"/>
<path d="M66.99 21.7H65.78V18.44H66.73C67.69 17.45 68.14 16.08 67.97 14.72V9.79004H74.51V18.44H75.62V21.7H74.41V19.58H66.99V21.7ZM69.22 14.72C69.32 16.03 69 17.33 68.3 18.44H73.24V11.1H69.22V14.72Z" fill="white"/>
<path d="M66.99 21.7H65.78V18.44H66.73C67.69 17.45 68.14 16.08 67.97 14.72V9.79004H74.51V18.44H75.62V21.7H74.41V19.58H66.99V21.7V21.7ZM69.22 14.72C69.32 16.03 69 17.33 68.3 18.44H73.24V11.1H69.22V14.72Z" stroke="white" stroke-width="0.1489" stroke-miterlimit="10"/>
<path d="M85.37 18.3996C84.43 19.3696 83.12 19.8996 81.77 19.8696C80.43 19.8996 79.14 19.3696 78.21 18.3996C77.27 17.4296 76.75 16.1296 76.77 14.7796C76.74 13.4296 77.26 12.1196 78.21 11.1596C79.15 10.2396 80.42 9.73955 81.74 9.78955C83.09 9.75955 84.39 10.2896 85.34 11.2596C86.28 12.2296 86.8 13.5296 86.78 14.8796C86.8 16.2296 86.28 17.5296 85.34 18.4996C85.33 18.4996 85.37 18.3996 85.37 18.3996ZM79.12 17.5896C80.59 19.0196 82.94 19.0196 84.42 17.5896C85.17 16.8496 85.57 15.8296 85.53 14.7796C85.57 13.7296 85.17 12.7096 84.42 11.9696C82.95 10.5396 80.6 10.5396 79.12 11.9696C78.39 12.7196 78.01 13.7296 78.04 14.7796C78.01 15.8296 78.4 16.8396 79.12 17.5896Z" fill="white"/>
<path d="M85.37 18.3996C84.43 19.3696 83.12 19.8996 81.77 19.8696C80.43 19.8996 79.14 19.3696 78.21 18.3996C77.27 17.4296 76.75 16.1296 76.77 14.7796C76.74 13.4296 77.26 12.1196 78.21 11.1596C79.15 10.2396 80.42 9.73955 81.74 9.78955C83.09 9.75955 84.39 10.2896 85.34 11.2596C86.28 12.2296 86.8 13.5296 86.78 14.8796C86.77 16.1896 86.27 17.4496 85.37 18.3996ZM79.12 17.5896C80.59 19.0196 82.94 19.0196 84.42 17.5896C85.17 16.8496 85.57 15.8296 85.53 14.7796C85.57 13.7296 85.17 12.7096 84.42 11.9696C82.95 10.5396 80.6 10.5396 79.12 11.9696C78.39 12.7196 78.01 13.7296 78.04 14.7796C78.01 15.8296 78.4 16.8396 79.12 17.5896Z" stroke="white" stroke-width="0.1489" stroke-miterlimit="10"/>
<path d="M93.12 19.8701C91.05 19.9201 89.16 18.66 88.41 16.73C88.16 16.11 88.04 15.44 88.06 14.78C88.05 13.44 88.58 12.16 89.54 11.22C90.49 10.28 91.79 9.76005 93.13 9.79005C94.5 9.74005 95.82 10.33 96.69 11.39L95.84 12.24C95.19 11.41 94.18 10.95 93.13 11C92.1 10.97 91.1 11.37 90.38 12.11C89.66 12.85 89.28 13.85 89.34 14.88C89.3 15.92 89.69 16.94 90.42 17.69C91.14 18.4 92.12 18.7901 93.13 18.7701C94.29 18.7801 95.4 18.26 96.14 17.37L96.99 18.22C96.56 18.78 95.98 19.22 95.32 19.49C94.64 19.82 93.89 19.98 93.13 19.98" fill="white"/>
<path d="M93.12 19.8701C91.05 19.9201 89.16 18.66 88.41 16.73C88.16 16.11 88.04 15.44 88.06 14.78C88.05 13.44 88.58 12.16 89.54 11.22C90.49 10.28 91.79 9.76005 93.13 9.79005C94.5 9.74005 95.82 10.33 96.69 11.39L95.84 12.24C95.19 11.41 94.18 10.95 93.13 11C92.1 10.97 91.1 11.37 90.38 12.11C89.66 12.85 89.28 13.85 89.34 14.88C89.3 15.92 89.69 16.94 90.42 17.69C91.14 18.4 92.12 18.7901 93.13 18.7701C94.29 18.7801 95.4 18.26 96.14 17.37L96.99 18.22C96.56 18.78 95.98 19.22 95.32 19.49C94.62 19.77 93.87 19.9101 93.12 19.8701Z" stroke="white" stroke-width="0.1489" stroke-miterlimit="10"/>
<path d="M102.04 19.6399H100.8V11.0899H98.09V9.91992H104.79V11.0999H102.04V19.6399Z" fill="white"/>
<path d="M102.04 19.6399H100.8V11.0899H98.09V9.91992H104.79V11.0999H102.04V19.6399Z" stroke="white" stroke-width="0.1489" stroke-miterlimit="10"/>
<path d="M113.39 9.79004L109.7 18.11C109.39 19.13 108.47 19.84 107.41 19.87C107.08 19.85 106.75 19.75 106.46 19.58L106.79 18.44C107 18.49 107.23 18.49 107.44 18.44C107.66 18.5 107.9 18.5 108.13 18.44C108.31 18.26 108.45 18.05 108.56 17.82L108.92 17.04L105.62 9.80004H107.09L109.51 15.38L111.93 9.80004L113.39 9.79004Z" fill="white"/>
<path d="M113.39 9.79004L109.7 18.11C109.39 19.13 108.47 19.84 107.41 19.87C107.08 19.85 106.75 19.75 106.46 19.58L106.79 18.44C107 18.49 107.23 18.49 107.44 18.44C107.66 18.5 107.9 18.5 108.13 18.44C108.31 18.26 108.45 18.05 108.56 17.82L108.92 17.04L105.62 9.80004H107.09L109.51 15.38L111.93 9.80004L113.39 9.79004Z" stroke="white" stroke-width="0.1489" stroke-miterlimit="10"/>
<path d="M114.79 19.6399V9.91992H121.85V19.6399H120.61V11.0899H116.07V19.6399H114.79Z" fill="white"/>
<path d="M114.79 19.6399V9.91992H121.85V19.6399H120.61V11.0899H116.07V19.6399C116.07 19.6399 114.79 19.6399 114.79 19.6399Z" stroke="white" stroke-width="0.1489" stroke-miterlimit="10"/>
<path d="M124.11 19.6399V9.91992H125.35V14.0999H130.22V9.91992H131.49V19.6399H130.22V15.2399H125.35V19.6499L124.11 19.6399Z" fill="white"/>
<path d="M124.11 19.6399V9.91992H125.35V14.0999H130.22V9.91992H131.49V19.6399H130.22V15.2399H125.35V19.6499L124.11 19.6399Z" stroke="white" stroke-width="0.1489" stroke-miterlimit="10"/>
<path d="M141.7 18.3998C140.77 19.3698 139.48 19.8998 138.14 19.8698C136.79 19.8998 135.49 19.3698 134.54 18.3998C133.6 17.4298 133.08 16.1298 133.1 14.7798C133.07 13.4298 133.59 12.1198 134.54 11.1598C136.53 9.20977 139.71 9.20977 141.7 11.1598C142.64 12.1298 143.16 13.4298 143.14 14.7798C143.16 16.1298 142.64 17.4298 141.7 18.3998ZM135.49 17.5898C136.96 19.0198 139.31 19.0198 140.79 17.5898C141.52 16.8398 141.9 15.8298 141.87 14.7798C141.91 13.7398 141.52 12.7198 140.79 11.9698C139.32 10.5398 136.97 10.5398 135.49 11.9698C134.76 12.7198 134.36 13.7298 134.38 14.7798C134.36 15.8298 134.76 16.8398 135.49 17.5898Z" fill="white"/>
<path d="M141.7 18.3998C140.77 19.3698 139.48 19.8998 138.14 19.8698C136.79 19.8998 135.49 19.3698 134.54 18.3998C133.6 17.4298 133.08 16.1298 133.1 14.7798C133.07 13.4298 133.59 12.1198 134.54 11.1598C136.53 9.20977 139.71 9.20977 141.7 11.1598C142.64 12.1298 143.16 13.4298 143.14 14.7798C143.16 16.1298 142.64 17.4298 141.7 18.3998ZM135.49 17.5898C136.96 19.0198 139.31 19.0198 140.79 17.5898C141.52 16.8398 141.9 15.8298 141.87 14.7798C141.91 13.7398 141.52 12.7198 140.79 11.9698C139.32 10.5398 136.97 10.5398 135.49 11.9698C134.76 12.7198 134.36 13.7298 134.38 14.7798C134.36 15.8298 134.76 16.8398 135.49 17.5898Z" stroke="white" stroke-width="0.1489" stroke-miterlimit="10"/>
<path d="M148.27 19.5801V9.7901H151.8C152.53 9.7701 153.23 10.0401 153.76 10.5401C154.32 11.0001 154.64 11.7001 154.61 12.4301C154.62 12.8601 154.49 13.2801 154.25 13.6401C154.01 13.9901 153.69 14.2801 153.3 14.4601C153.77 14.6201 154.18 14.9101 154.48 15.3101C154.78 15.7001 154.94 16.1901 154.94 16.6801C154.96 17.4401 154.64 18.1701 154.06 18.6701C153.5 19.1801 152.76 19.4601 152 19.4501L148.27 19.5801ZM149.52 14.0301H151.81C152.24 14.0401 152.66 13.8601 152.95 13.5401C153.21 13.2701 153.36 12.9101 153.38 12.5301C153.38 12.1401 153.23 11.7601 152.95 11.4801C152.67 11.1801 152.28 11.0201 151.87 11.0201H149.52V14.0301ZM149.52 18.3701H152.04C152.49 18.3901 152.92 18.2101 153.22 17.8801C153.49 17.6001 153.65 17.2301 153.68 16.8401C153.67 16.4401 153.51 16.0501 153.22 15.7601C152.91 15.4301 152.47 15.2401 152.01 15.2401H149.52V18.3701Z" fill="white"/>
<path d="M148.27 19.5801V9.7901H151.8C152.53 9.7701 153.23 10.0401 153.76 10.5401C154.32 11.0001 154.64 11.7001 154.61 12.4301C154.62 12.8601 154.49 13.2801 154.25 13.6401C154.01 13.9901 153.69 14.2801 153.3 14.4601C153.77 14.6201 154.18 14.9101 154.48 15.3101C154.78 15.7001 154.94 16.1901 154.94 16.6801C154.96 17.4401 154.64 18.1701 154.06 18.6701C153.5 19.1801 152.76 19.4601 152 19.4501L148.27 19.5801ZM149.52 14.0301H151.81C152.24 14.0401 152.66 13.8601 152.95 13.5401C153.21 13.2701 153.36 12.9101 153.38 12.5301C153.38 12.1401 153.23 11.7601 152.95 11.4801C152.67 11.1801 152.28 11.0201 151.87 11.0201H149.52V14.0301V14.0301ZM149.52 18.3701H152.04C152.49 18.3901 152.92 18.2101 153.22 17.8801C153.49 17.6001 153.65 17.2301 153.68 16.8401C153.67 16.4401 153.51 16.0501 153.22 15.7601C152.91 15.4301 152.47 15.2401 152.01 15.2401H149.52V18.3701Z" stroke="white" stroke-width="0.1489" stroke-miterlimit="10"/>
</g>
<defs>
<linearGradient id="paint0_linear" x1="35.7055" y1="31.0452" x2="52.2495" y2="31.0452" gradientUnits="userSpaceOnUse">
<stop stop-color="#FFE000"/>
<stop offset="0.42" stop-color="#F9BB00"/>
<stop offset="0.78" stop-color="#F5A300"/>
<stop offset="1" stop-color="#F49A00"/>
</linearGradient>
<linearGradient id="paint1_linear" x1="15.4681" y1="41.3885" x2="42.5728" y2="41.3885" gradientUnits="userSpaceOnUse">
<stop stop-color="#E6393D"/>
<stop offset="1" stop-color="#C70E66"/>
</linearGradient>
<linearGradient id="paint2_linear" x1="15.4681" y1="20.5633" x2="42.5728" y2="20.5633" gradientUnits="userSpaceOnUse">
<stop stop-color="#229866"/>
<stop offset="0.15" stop-color="#339F64"/>
<stop offset="0.52" stop-color="#5BAE5E"/>
<stop offset="0.82" stop-color="#73B85B"/>
<stop offset="1" stop-color="#7CBB5A"/>
</linearGradient>
<clipPath id="clip0">
<rect width="216.54" height="62" fill="white"/>
</clipPath>
</defs>
</svg>
