<svg width="50" height="50" viewBox="0 0 50 50" fill="none" xmlns="http://www.w3.org/2000/svg">
<g clip-path="url(#clip0)">
<path d="M24.9987 30.5754C28.0772 30.5754 30.5729 28.0798 30.5729 25.0013C30.5729 21.9228 28.0772 19.4271 24.9987 19.4271C21.9202 19.4271 19.4246 21.9228 19.4246 25.0013C19.4246 28.0798 21.9202 30.5754 24.9987 30.5754Z" fill="white"/>
<path d="M38.035 15.1391C37.7328 14.3574 37.3682 13.8005 36.7838 13.2161C36.1994 12.6317 35.6425 12.2696 34.8608 11.9649C34.2715 11.7352 33.3874 11.463 31.7566 11.388C29.9934 11.3081 29.464 11.2906 24.9987 11.2906C20.5334 11.2906 20.0039 11.3081 18.2408 11.388C16.61 11.463 15.7259 11.7352 15.1365 11.9649C14.3549 12.2671 13.798 12.6317 13.2136 13.2161C12.6292 13.8005 12.2671 14.3574 11.9624 15.1391C11.7326 15.7285 11.4604 16.6126 11.3855 18.2434C11.3056 20.0065 11.2881 20.5359 11.2881 25.0013C11.2881 29.4666 11.3056 29.996 11.3855 31.7592C11.4604 33.39 11.7326 34.274 11.9624 34.8634C12.2646 35.6451 12.6292 36.202 13.2136 36.7864C13.798 37.3708 14.3549 37.7329 15.1365 38.0376C15.7259 38.2673 16.61 38.5395 18.2408 38.6145C20.0039 38.6944 20.5334 38.7119 24.9987 38.7119C29.464 38.7119 29.9934 38.6944 31.7566 38.6145C33.3874 38.5395 34.2715 38.2673 34.8608 38.0376C35.6425 37.7354 36.1994 37.3708 36.7838 36.7864C37.3682 36.202 37.7303 35.6451 38.035 34.8634C38.2648 34.274 38.537 33.39 38.6119 31.7592C38.6918 29.996 38.7093 29.4666 38.7093 25.0013C38.7093 20.5359 38.6918 20.0065 38.6119 18.2434C38.537 16.6126 38.2648 15.7285 38.035 15.1391ZM24.9987 33.5872C20.2562 33.5872 16.4127 29.7438 16.4127 25.0013C16.4127 20.2587 20.2562 16.4153 24.9987 16.4153C29.7412 16.4153 33.5847 20.2587 33.5847 25.0013C33.5847 29.7438 29.7412 33.5872 24.9987 33.5872ZM33.9268 18.081C32.818 18.081 31.9214 17.182 31.9214 16.0756C31.9214 14.9693 32.8205 14.0702 33.9268 14.0702C35.0332 14.0702 35.9322 14.9693 35.9322 16.0756C35.9322 17.182 35.0332 18.081 33.9268 18.081Z" fill="white"/>
<path d="M25.0112 0C25.0087 0 25.0037 0 25.0013 0C11.1933 0 3.76311e-06 11.1932 3.76311e-06 25.0012C-0.00748837 38.8017 11.1733 49.9925 24.9738 50C24.9788 50 24.9838 50 24.9888 50H25.0137C38.8068 50.0075 49.9925 38.8317 50 25.0387C50 25.0312 50 25.0212 50 25.0137C50.0075 11.2057 38.8192 0.00749213 25.0112 0ZM41.6213 31.894C41.5389 33.6746 41.2567 34.8884 40.8446 35.9522C40.4176 37.0511 39.8457 37.9851 38.9166 38.9141C37.9876 39.8432 37.0536 40.4151 35.9548 40.8421C34.8909 41.2567 33.6746 41.5389 31.8965 41.6188C30.1134 41.7012 29.544 41.7187 25.0013 41.7187C20.4585 41.7187 19.8916 41.6987 18.106 41.6188C16.3254 41.5364 15.1116 41.2542 14.0478 40.8421C12.9489 40.4151 12.0149 39.8432 11.0859 38.9141C10.1568 37.9851 9.58494 37.0511 9.15789 35.9522C8.74332 34.8884 8.46112 33.6721 8.3812 31.894C8.29879 30.1109 8.28131 29.5415 8.28131 24.9987C8.28131 20.4585 8.30129 19.8891 8.3812 18.1035C8.46362 16.3229 8.74582 15.1091 9.15789 14.0452C9.58494 12.9464 10.1568 12.0124 11.0859 11.0834C12.0149 10.1543 12.9489 9.58244 14.0478 9.15538C15.1116 8.74082 16.3279 8.45862 18.106 8.3787C19.8891 8.29629 20.4585 8.27881 25.0013 8.27881C29.544 8.27881 30.1109 8.29878 31.8965 8.3787C33.6771 8.46111 34.8909 8.74332 35.9548 9.15538C37.0536 9.58244 37.9876 10.1543 38.9166 11.0834C39.8457 12.0124 40.4176 12.9464 40.8446 14.0452C41.2592 15.1091 41.5414 16.3254 41.6213 18.1035C41.7037 19.8866 41.7212 20.456 41.7212 24.9987C41.7212 29.5415 41.7012 30.1109 41.6213 31.894Z" fill="white"/>
</g>
<defs>
<clipPath id="clip0">
<rect width="50" height="50" fill="white"/>
</clipPath>
</defs>
</svg>
