<svg width="320" height="39" viewBox="0 0 320 39" fill="none" xmlns="http://www.w3.org/2000/svg">
<g clip-path="url(#clip0)">
<path fill-rule="evenodd" clip-rule="evenodd" d="M1.9682 19.3071C0.883682 19.3071 0 18.4234 0 17.3255C0 14.6476 0 9.94806 0 7.77903C0 7.04263 0.321339 6.333 0.870293 5.8376C2.3431 4.52547 5.31548 1.86104 6.92218 0.415011C7.53808 -0.133943 8.47531 -0.133943 9.09121 0.415011C10.6979 1.86104 13.6703 4.52547 15.1431 5.8376C15.6921 6.333 16.0134 7.04263 16.0134 7.77903C16.0134 9.94806 16.0134 14.6476 16.0134 17.3255C16.0134 18.41 15.1297 19.2937 14.0452 19.2937C10.9523 19.3071 5.0477 19.3071 1.9682 19.3071ZM65.995 19.3071C64.9105 19.3071 64.0268 18.4234 64.0268 17.3389C64.0268 14.661 64.0268 9.96145 64.0268 7.79242C64.0268 7.05602 64.3481 6.34639 64.8971 5.85099C66.3699 4.53886 69.3423 1.87443 70.949 0.4284C71.5649 -0.120553 72.5021 -0.120553 73.118 0.4284C74.7247 1.87443 77.6971 4.53886 79.1699 5.85099C79.7188 6.34639 80.0402 7.05602 80.0402 7.79242C80.0402 9.96145 80.0402 14.661 80.0402 17.3389C80.0402 18.4234 79.1565 19.3071 78.072 19.3071C74.9791 19.3071 69.0745 19.3071 65.995 19.3071ZM33.9816 19.3071C32.8971 19.3071 32.0134 18.4234 32.0134 17.3389C32.0134 14.661 32.0134 9.96145 32.0134 7.79242C32.0134 7.05602 32.3347 6.34639 32.8837 5.85099C34.3565 4.53886 37.3289 1.87443 38.9356 0.4284C39.5515 -0.120553 40.4887 -0.120553 41.1046 0.4284C42.7113 1.87443 45.6837 4.53886 47.1565 5.85099C47.7054 6.34639 48.0268 7.05602 48.0268 7.79242C48.0268 9.96145 48.0268 14.661 48.0268 17.3389C48.0268 18.4234 47.1431 19.3071 46.0586 19.3071C42.9657 19.3071 37.0611 19.3071 33.9816 19.3071ZM49.995 38.6008C48.9105 38.6008 48.0268 37.7171 48.0268 36.6326C48.0268 33.9548 48.0268 29.2552 48.0268 27.0861C48.0268 26.3497 48.3481 25.6401 48.8971 25.1447C50.3699 23.8326 53.3423 21.1681 54.949 19.7221C55.5649 19.1732 56.5021 19.1732 57.118 19.7221C58.7247 21.1681 61.6971 23.8326 63.1699 25.1447C63.7188 25.6401 64.0402 26.3497 64.0402 27.0861C64.0402 29.2552 64.0402 33.9548 64.0402 36.6326C64.0402 37.7171 63.1565 38.6008 62.072 38.6008C58.9791 38.6008 53.0611 38.6008 49.995 38.6008ZM30.0318 38.6008H17.9682C16.8837 38.6008 16 37.7171 16 36.6326C16 33.9548 16 29.2552 16 27.0861C16 26.3497 16.3213 25.6401 16.8703 25.1447C18.3431 23.8326 21.3155 21.1681 22.9222 19.7221C23.5381 19.1732 24.4753 19.1732 25.0912 19.7221C26.6979 21.1681 29.6703 23.8326 31.1431 25.1447C31.6921 25.6401 32.0134 26.3497 32.0134 27.0861C32.0134 29.2552 32.0134 33.9548 32.0134 36.6326C32.0134 37.7171 31.1297 38.6008 30.0318 38.6008Z" fill="#FF7200"/>
<path d="M178.651 33.2317H175.92V14.1522H181.516V24.6225L181.556 24.5823L191.451 14.1522H195.227V33.2317H189.63V22.7614L179.682 33.2317H178.651ZM134.213 33.2317H131.481V14.1522H137.078V24.6225L137.091 24.6091L147.026 14.1522H150.802V33.2317H145.205V22.7614L135.257 33.2317H134.213ZM172.452 19.1329H166.012V33.2317H160.281V19.1329H153.841V14.1522H172.452V19.1329ZM127.987 30.2727C125.188 32.8969 121.319 34.517 117.074 34.517C109.081 34.517 102.587 27.9564 102.587 19.8827C102.587 11.8091 109.081 5.24841 117.074 5.24841C121.024 5.24841 124.639 6.64088 127.371 8.94381L123.769 13.389C122.149 11.8626 119.9 10.912 117.275 10.912C112.536 10.912 108.693 14.9287 108.693 19.8827C108.693 24.8367 112.536 28.8534 117.275 28.8534C120.1 28.8534 122.484 27.7689 124.117 26.0283L127.987 30.2727Z" fill="#FF7200"/>
<path d="M257.406 23.6987C257.741 26.7782 259.468 29.282 263.083 29.282C265.52 29.282 268.532 27.6887 268.532 23.7389C268.532 20.7263 266.51 18.6644 263.551 18.6644C263.23 18.6644 262.909 18.6912 262.614 18.7313C261.315 18.9322 258.531 19.8159 257.406 23.6987ZM237.898 29.3355C234.979 29.3355 232.355 26.7514 232.355 23.7924C232.355 20.7799 234.992 18.1556 237.898 18.1556C241.138 18.1556 243.722 20.7799 243.722 23.7924C243.722 26.7514 241.138 29.3355 237.898 29.3355ZM223.799 33.2318H218.39V23.9129L212.726 31.143H210.209L204.546 23.9129V33.2318H199.136V19.1464V14.1656H202.926L211.481 24.6895L220.037 14.1656H223.826V33.2318H223.799ZM280.087 33.2318H277.356V14.1523H282.952V24.6225L292.887 14.1523H293.931H296.649V33.2318H291.053V22.7481L281.105 33.2318H280.087ZM320 33.2318H314.591V19.0527H309.088V26.0552C309.088 31.9598 305.018 34.2359 300.278 33.2318V28.9205C302.594 28.9205 303.371 28.4384 303.371 25.4393V14.1523H320V33.2318ZM265.52 13.8577C270.728 14.4066 273.794 17.8878 273.794 23.7389C273.607 29.7104 270.032 34.5037 263.27 34.5037C255.746 34.5037 252.09 29.9514 252.09 21.2083C252.09 14.2995 254.715 9.41251 260.646 7.01585C263.23 5.98489 266.042 5.36899 268.679 3.96313L271.264 8.04682C268.064 11.1129 259.307 10.1087 257.071 16.9774C258.678 15.1431 260.592 14.3397 262.186 14.005C262.828 13.8577 263.458 13.7774 264.02 13.7774C264.047 13.7774 264.06 13.7774 264.087 13.7774C264.957 13.764 265.52 13.8577 265.52 13.8577ZM237.898 12.8401C231.886 12.8401 226.905 17.7673 226.905 23.7924C226.905 29.7104 231.886 34.651 237.898 34.651C244.003 34.651 248.984 29.7238 248.984 23.7924C248.984 17.7807 244.003 12.8401 237.898 12.8401Z" fill="white"/>
</g>
<defs>
<clipPath id="clip0">
<rect width="320" height="38.6008" fill="white"/>
</clipPath>
</defs>
</svg>
