<?xml version="1.0" encoding="utf-8"?>
<!-- Generator: Adobe Illustrator 22.1.0, SVG Export Plug-In . SVG Version: 6.00 Build 0)  -->
<svg version="1.1" id="Слой_1" xmlns="http://www.w3.org/2000/svg" xmlns:xlink="http://www.w3.org/1999/xlink" x="0px" y="0px"
	 viewBox="0 0 300 36.2" style="enable-background:new 0 0 300 36.2;" xml:space="preserve">
<style type="text/css">
	.st0{fill-rule:evenodd;clip-rule:evenodd;fill:#FF7200;}
	.st1{fill:#FF7200;}
</style>
<g>
	<path class="st0" d="M1.9,18.1c-1,0-1.9-0.8-1.9-1.9c0-2.5,0-6.9,0-8.9c0-0.7,0.3-1.4,0.8-1.8C2.2,4.2,5,1.7,6.5,0.4
		c0.6-0.5,1.5-0.5,2,0c1.5,1.3,4.3,3.8,5.7,5.1C14.7,5.9,15,6.6,15,7.3c0,2,0,6.4,0,8.9c0,1-0.8,1.9-1.9,1.9
		C10.3,18.1,4.7,18.1,1.9,18.1z M61.9,18.1c-1,0-1.8-0.8-1.8-1.9c0-2.5,0-6.9,0-8.9c0-0.7,0.3-1.4,0.8-1.8c1.4-1.2,4.2-3.7,5.7-5.1
		c0.6-0.5,1.5-0.5,2,0c1.5,1.3,4.3,3.8,5.7,5.1C74.7,5.9,75,6.6,75,7.3c0,2,0,6.4,0,8.9c0,1-0.8,1.9-1.8,1.9
		C70.3,18.1,64.8,18.1,61.9,18.1z M31.9,18.1c-1,0-1.8-0.8-1.8-1.9c0-2.5,0-6.9,0-8.9c0-0.7,0.3-1.4,0.8-1.8
		c1.4-1.2,4.2-3.7,5.7-5.1c0.6-0.5,1.5-0.5,2,0c1.5,1.3,4.3,3.8,5.7,5.1C44.7,5.9,45,6.6,45,7.3c0,2,0,6.4,0,8.9
		c0,1-0.8,1.9-1.8,1.9C40.3,18.1,34.7,18.1,31.9,18.1z M46.9,36.2c-1,0-1.8-0.8-1.8-1.9c0-2.5,0-6.9,0-8.9c0-0.7,0.3-1.4,0.8-1.8
		c1.4-1.2,4.2-3.7,5.7-5.1c0.6-0.5,1.5-0.5,2,0c1.5,1.3,4.3,3.8,5.7,5.1c0.5,0.5,0.8,1.1,0.8,1.8c0,2,0,6.4,0,8.9
		c0,1-0.8,1.9-1.8,1.9C55.3,36.2,49.8,36.2,46.9,36.2z M28.2,36.2H16.9c-1,0-1.9-0.8-1.9-1.9c0-2.5,0-6.9,0-8.9
		c0-0.7,0.3-1.4,0.8-1.8c1.4-1.2,4.2-3.7,5.7-5.1c0.6-0.5,1.5-0.5,2,0c1.5,1.3,4.3,3.8,5.7,5.1c0.5,0.5,0.8,1.1,0.8,1.8
		c0,2,0,6.4,0,8.9C30,35.4,29.2,36.2,28.2,36.2z"/>
	<path class="st1" d="M136.1,21.3L136.1,21.3L136.1,21.3z M177.8,21.3L177.8,21.3L177.8,21.3L177.8,21.3z M167.5,31.2h-2.6V13.3h5.2
		v9.8l0,0l9.3-9.8h3.5v17.9h-5.2v-9.8l-9.3,9.8H167.5L167.5,31.2L167.5,31.2z M125.8,31.2h-2.6V13.3h5.2v9.8l0,0l9.3-9.8h3.5v17.9
		h-5.2v-9.8l-9.3,9.8H125.8z M161.7,17.9h-6v13.2h-5.4V17.9h-6v-4.7h17.4V17.9z M120,28.4c-2.6,2.5-6.2,4-10.2,4
		c-7.5,0-13.6-6.1-13.6-13.7c0-7.6,6.1-13.7,13.6-13.7c3.7,0,7.1,1.3,9.7,3.5l-3.4,4.2c-1.5-1.4-3.6-2.3-6.1-2.3c-4.4,0-8,3.8-8,8.4
		s3.6,8.4,8,8.4c2.6,0,4.9-1,6.4-2.6L120,28.4z"/>
	<path d="M241.3,22.2c0.3,2.9,1.9,5.2,5.3,5.2c2.3,0,5.1-1.5,5.1-5.2c0-2.8-1.9-4.8-4.7-4.8c-0.3,0-0.6,0-0.9,0.1
		C245,17.7,242.4,18.6,241.3,22.2z M223,27.5c-2.7,0-5.2-2.4-5.2-5.2c0-2.8,2.5-5.3,5.2-5.3c3,0,5.5,2.5,5.5,5.3
		C228.5,25.1,226.1,27.5,223,27.5z M209.8,31.2h-5.1v-8.7l-5.3,6.8h-2.4l-5.3-6.8v8.7h-5.1V17.9h0v-4.7h3.5l8,9.9l8-9.9h3.5V31.2z
		 M262.6,31.2H260V13.3h5.2v9.8l0,0l9.3-9.8h1l0,0l0,0h2.6v17.9h-5.2v-9.8l-9.3,9.8H262.6z M300,31.2h-5.1V17.9h-5.2v6.6
		c0,5.5-3.8,7.7-8.3,6.7v-4c2.2,0,2.9-0.4,2.9-3.3V13.3H300V31.2z M248.9,13c4.9,0.5,7.8,3.8,7.8,9.3c-0.2,5.6-3.5,10.1-9.9,10.1
		c-7,0-10.5-4.3-10.5-12.5c0-6.5,2.5-11.1,8-13.3c2.4-1,5.1-1.5,7.5-2.9l2.4,3.8c-3,2.9-11.2,1.9-13.3,8.4c1.5-1.7,3.3-2.5,4.8-2.8
		c0.6-0.1,1.2-0.2,1.7-0.2c0,0,0,0,0.1,0C248.4,12.9,248.9,13,248.9,13z M223,12c-5.6,0-10.3,4.6-10.3,10.3
		c0,5.6,4.7,10.2,10.3,10.2c5.7,0,10.4-4.6,10.4-10.2C233.4,16.7,228.8,12,223,12z"/>
</g>
</svg>
