<svg width="51" height="50" viewBox="0 0 51 50" fill="none" xmlns="http://www.w3.org/2000/svg">
<g clip-path="url(#clip0)">
<path d="M24.9075 21.9874C26.3539 21.9874 27.5279 20.8133 27.5279 19.367C27.5279 17.9206 26.3539 16.7466 24.9075 16.7466V16.7366C24.905 16.7366 24.9 16.7366 24.8975 16.7366C23.4512 16.7416 22.2821 17.9206 22.2871 19.367C22.2871 20.8133 23.4612 21.9874 24.9075 21.9874Z" fill="white"/>
<path d="M25.0175 0C25.015 0 25.01 0 25.0075 0C11.196 0 0 11.196 0 25.0075C0 38.8114 11.1885 50 24.9925 50H24.995H25.02C38.8164 50.0075 50.005 38.8289 50.0125 25.0325C50.0125 25.0275 50.0125 25.025 50.0125 25.02C50.02 11.2085 38.8289 0.007494 25.0175 0ZM18.5801 19.3645C18.5801 15.8698 21.4129 13.0371 24.9076 13.0371C28.4023 13.0371 31.235 15.8698 31.235 19.3645C31.235 22.8592 28.4023 25.6919 24.9076 25.6919C21.4154 25.6894 18.5851 22.8592 18.5801 19.367V19.3645ZM31.0052 34.39C31.7296 35.1144 31.7296 36.2885 31.0077 37.0104C30.2833 37.7348 29.1092 37.7348 28.3873 37.0129L24.9101 33.5357L21.4328 37.0129C20.7084 37.7373 19.5344 37.7373 18.8099 37.0129C18.0855 36.2885 18.0855 35.1144 18.8099 34.39L22.3571 30.8528C21.0556 30.5555 19.8141 30.041 18.6825 29.3315C17.8732 28.7845 17.6284 27.7028 18.1205 26.8585C18.6376 25.9742 19.7742 25.6745 20.6585 26.1915C23.2639 27.8202 26.5712 27.8202 29.1767 26.1915C30.021 25.6994 31.1026 25.9442 31.6497 26.7536C32.2242 27.6029 32.0019 28.757 31.1526 29.3315C30.0235 30.0435 28.7795 30.558 27.478 30.8528L31.0052 34.39Z" fill="white"/>
</g>
<defs>
<clipPath id="clip0">
<rect width="50.0125" height="50" fill="white"/>
</clipPath>
</defs>
</svg>
