<svg width="50" height="50" viewBox="0 0 50 50" fill="none" xmlns="http://www.w3.org/2000/svg">
<g clip-path="url(#clip0)">
<path d="M25.0112 0C25.0087 0 25.0037 0 25.0013 0C11.1933 0 3.76311e-06 11.1932 3.76311e-06 25.0012C-0.00748837 38.8017 11.1733 49.9925 24.9738 50C24.9788 50 24.9838 50 24.9888 50H25.0137C38.8068 50.0075 49.9925 38.8317 50 25.0387C50 25.0312 50 25.0212 50 25.0137C50.0075 11.2057 38.8192 0.00749213 25.0112 0ZM37.3758 33.9468L33.5648 33.9993C33.5648 33.9993 32.7456 34.1716 31.6668 33.4224C30.2432 32.4434 28.9121 29.8936 27.8508 30.2308C26.7894 30.5679 26.8218 32.858 26.8218 32.858C26.8268 33.1277 26.7444 33.3899 26.5871 33.6072C26.3673 33.797 26.0951 33.9144 25.8079 33.9468H24.1022V33.9419C24.1022 33.9419 20.3386 34.1691 17.0246 30.7177C13.4109 26.9717 10.2193 19.4795 10.2193 19.4795C10.2193 19.4795 10.0095 19.0275 10.2343 18.7628C10.459 18.4981 11.0709 18.4806 11.0709 18.4806L15.1491 18.4631C15.3839 18.5081 15.6086 18.598 15.8084 18.7303C15.9582 18.8577 16.0781 19.0175 16.1555 19.1973C16.5976 20.2887 17.1095 21.3476 17.6889 22.3715C19.3921 25.3159 20.1838 25.9602 20.7632 25.6431C21.6023 25.1835 21.3526 21.4824 21.3526 21.4824C21.3526 21.4824 21.3676 20.1388 20.928 19.542C20.5884 19.0775 19.9466 18.9426 19.6619 18.9051C19.4321 18.8752 19.7992 18.3532 20.2987 18.1035C21.0304 17.7389 22.3266 17.7239 23.8575 17.7389C24.5292 17.7139 25.201 17.7788 25.8554 17.9362C27.2614 18.2758 26.7844 19.5869 26.7844 22.7311C26.7844 23.7376 26.6046 25.1561 27.3313 25.6256C27.6535 25.8254 28.4177 25.6581 30.3282 22.4115C30.9375 21.3376 31.467 20.2188 31.9115 19.065C31.9964 18.8827 32.1263 18.7228 32.2911 18.6055C32.4609 18.5181 32.6557 18.4831 32.8455 18.5056L37.136 18.4806C37.136 18.4806 38.4172 18.2958 38.6344 18.9076C38.8517 19.5195 38.1474 20.9455 36.3993 23.283C33.5198 27.119 33.2001 26.7594 35.5901 28.9771C37.8727 31.0973 38.3447 32.1288 38.4247 32.2561C39.3737 33.8245 37.3758 33.9468 37.3758 33.9468Z" fill="white"/>
</g>
<defs>
<clipPath id="clip0">
<rect width="50" height="50" fill="white"/>
</clipPath>
</defs>
</svg>
